<mxfile host="Electron" modified="2023-09-27T16:00:51.899Z" agent="Mozilla/5.0 (Windows NT 10.0; Win64; x64) AppleWebKit/537.36 (KHTML, like Gecko) draw.io/21.8.2 Chrome/114.0.5735.289 Electron/25.8.1 Safari/537.36" etag="uLLPiJ0NYRjWkirbrQVE" version="21.8.2" type="device">
  <diagram name="Component diagram" id="binOLWndquHaHw7bPxjn">
    <mxGraphModel dx="1050" dy="717" grid="1" gridSize="10" guides="1" tooltips="1" connect="1" arrows="1" fold="1" page="1" pageScale="1" pageWidth="827" pageHeight="1169" math="0" shadow="0">
      <root>
        <mxCell id="0" />
        <mxCell id="1" parent="0" />
        <mxCell id="W2tcgjGK7vni5vvteFp--34" value="" style="rounded=0;whiteSpace=wrap;html=1;fillColor=default;strokeWidth=2;" vertex="1" parent="1">
          <mxGeometry x="10" y="80" width="810" height="470" as="geometry" />
        </mxCell>
        <mxCell id="x0y0YtUDQ0TOQP08zuUc-10" value="" style="shape=folder;fontStyle=1;spacingTop=10;tabWidth=240;tabHeight=40;tabPosition=left;html=1;whiteSpace=wrap;fillColor=none;strokeWidth=2;movable=0;resizable=0;rotatable=0;deletable=0;editable=0;locked=1;connectable=0;" parent="1" vertex="1">
          <mxGeometry x="40" y="110" width="500" height="410" as="geometry" />
        </mxCell>
        <mxCell id="W2tcgjGK7vni5vvteFp--6" value="Component diagram (диаграмма компонентов)" style="rounded=0;whiteSpace=wrap;html=1;fillColor=#cce5ff;strokeWidth=2;fontSize=20;strokeColor=#36393d;" vertex="1" parent="1">
          <mxGeometry x="10" y="40" width="810" height="40" as="geometry" />
        </mxCell>
        <mxCell id="W2tcgjGK7vni5vvteFp--7" value="&lt;p style=&quot;line-height: 90%;&quot;&gt;System login page&lt;br&gt;&lt;font style=&quot;font-size: 12px;&quot;&gt;(Страница входа в систему)&lt;/font&gt;&lt;/p&gt;" style="text;html=1;strokeColor=none;fillColor=none;align=center;verticalAlign=middle;whiteSpace=wrap;rounded=0;fontSize=16;" vertex="1" parent="1">
          <mxGeometry x="40" y="110" width="240" height="40" as="geometry" />
        </mxCell>
        <mxCell id="W2tcgjGK7vni5vvteFp--9" value="&lt;font style=&quot;&quot;&gt;&lt;span style=&quot;font-size: 16px;&quot;&gt;User Database&lt;/span&gt;&lt;br style=&quot;border-color: var(--border-color);&quot;&gt;&lt;font style=&quot;border-color: var(--border-color); font-size: 12px;&quot;&gt;(База данных пользователей)&lt;/font&gt;&lt;/font&gt;" style="html=1;dropTarget=0;whiteSpace=wrap;strokeWidth=2;fillColor=#cce5ff;strokeColor=#36393d;" vertex="1" parent="1">
          <mxGeometry x="60" y="290" width="180" height="100" as="geometry" />
        </mxCell>
        <mxCell id="W2tcgjGK7vni5vvteFp--10" value="" style="shape=module;jettyWidth=8;jettyHeight=4;strokeWidth=2;fillColor=#cce5ff;strokeColor=#36393d;" vertex="1" parent="W2tcgjGK7vni5vvteFp--9">
          <mxGeometry x="1" width="20" height="20" relative="1" as="geometry">
            <mxPoint x="-27" y="7" as="offset" />
          </mxGeometry>
        </mxCell>
        <mxCell id="W2tcgjGK7vni5vvteFp--29" style="edgeStyle=orthogonalEdgeStyle;rounded=1;orthogonalLoop=1;jettySize=auto;html=1;exitX=0.5;exitY=1;exitDx=0;exitDy=0;entryX=0.5;entryY=0;entryDx=0;entryDy=0;dashed=1;strokeWidth=2;" edge="1" parent="1" source="W2tcgjGK7vni5vvteFp--11" target="W2tcgjGK7vni5vvteFp--13">
          <mxGeometry relative="1" as="geometry" />
        </mxCell>
        <mxCell id="W2tcgjGK7vni5vvteFp--30" style="edgeStyle=orthogonalEdgeStyle;rounded=1;orthogonalLoop=1;jettySize=auto;html=1;exitX=0;exitY=0.5;exitDx=0;exitDy=0;entryX=1;entryY=0.5;entryDx=0;entryDy=0;strokeWidth=2;dashed=1;" edge="1" parent="1" source="W2tcgjGK7vni5vvteFp--11" target="W2tcgjGK7vni5vvteFp--9">
          <mxGeometry relative="1" as="geometry" />
        </mxCell>
        <mxCell id="W2tcgjGK7vni5vvteFp--11" value="Validation module&lt;br style=&quot;border-color: var(--border-color); font-size: 16px;&quot;&gt;&lt;font style=&quot;border-color: var(--border-color); font-size: 12px;&quot;&gt;(Модуль проверки)&lt;/font&gt;" style="html=1;dropTarget=0;whiteSpace=wrap;fontSize=16;strokeWidth=2;fillColor=#cce5ff;strokeColor=#36393d;" vertex="1" parent="1">
          <mxGeometry x="320" y="200" width="180" height="100" as="geometry" />
        </mxCell>
        <mxCell id="W2tcgjGK7vni5vvteFp--12" value="" style="shape=module;jettyWidth=8;jettyHeight=4;strokeWidth=2;fillColor=#cce5ff;strokeColor=#36393d;" vertex="1" parent="W2tcgjGK7vni5vvteFp--11">
          <mxGeometry x="1" width="20" height="20" relative="1" as="geometry">
            <mxPoint x="-27" y="7" as="offset" />
          </mxGeometry>
        </mxCell>
        <mxCell id="W2tcgjGK7vni5vvteFp--33" style="edgeStyle=orthogonalEdgeStyle;rounded=1;orthogonalLoop=1;jettySize=auto;html=1;exitX=0;exitY=0.5;exitDx=0;exitDy=0;entryX=1;entryY=0.5;entryDx=0;entryDy=0;strokeWidth=2;dashed=1;" edge="1" parent="1" source="W2tcgjGK7vni5vvteFp--13" target="W2tcgjGK7vni5vvteFp--9">
          <mxGeometry relative="1" as="geometry" />
        </mxCell>
        <mxCell id="W2tcgjGK7vni5vvteFp--13" value="System dashboard&lt;br style=&quot;border-color: var(--border-color); font-size: 16px;&quot;&gt;&lt;font style=&quot;border-color: var(--border-color); font-size: 12px;&quot;&gt;(Cистемная панель)&lt;/font&gt;" style="html=1;dropTarget=0;whiteSpace=wrap;fontSize=16;strokeWidth=2;fillColor=#cce5ff;strokeColor=#36393d;" vertex="1" parent="1">
          <mxGeometry x="320" y="380" width="180" height="100" as="geometry" />
        </mxCell>
        <mxCell id="W2tcgjGK7vni5vvteFp--14" value="" style="shape=module;jettyWidth=8;jettyHeight=4;strokeWidth=2;fillColor=#cce5ff;strokeColor=#36393d;" vertex="1" parent="W2tcgjGK7vni5vvteFp--13">
          <mxGeometry x="1" width="20" height="20" relative="1" as="geometry">
            <mxPoint x="-27" y="7" as="offset" />
          </mxGeometry>
        </mxCell>
        <mxCell id="W2tcgjGK7vni5vvteFp--15" value="User login information&lt;br style=&quot;border-color: var(--border-color); font-size: 16px;&quot;&gt;&lt;font style=&quot;border-color: var(--border-color); font-size: 12px;&quot;&gt;(Информация для входа пользователя)&lt;/font&gt;" style="html=1;dropTarget=0;whiteSpace=wrap;fontSize=16;strokeWidth=2;fillColor=#cce5ff;strokeColor=#36393d;" vertex="1" parent="1">
          <mxGeometry x="620" y="290" width="180" height="100" as="geometry" />
        </mxCell>
        <mxCell id="W2tcgjGK7vni5vvteFp--16" value="" style="shape=module;jettyWidth=8;jettyHeight=4;strokeWidth=2;fillColor=#cce5ff;strokeColor=#36393d;" vertex="1" parent="W2tcgjGK7vni5vvteFp--15">
          <mxGeometry x="1" width="20" height="20" relative="1" as="geometry">
            <mxPoint x="-27" y="7" as="offset" />
          </mxGeometry>
        </mxCell>
        <mxCell id="W2tcgjGK7vni5vvteFp--8" value="" style="rounded=0;whiteSpace=wrap;html=1;strokeWidth=2;fillColor=#eeeeee;strokeColor=#36393d;" vertex="1" parent="1">
          <mxGeometry x="490" y="240" width="20" height="20" as="geometry" />
        </mxCell>
        <mxCell id="W2tcgjGK7vni5vvteFp--19" value="" style="endArrow=none;html=1;rounded=1;entryX=0;entryY=0.5;entryDx=0;entryDy=0;exitX=1;exitY=0.5;exitDx=0;exitDy=0;strokeWidth=2;edgeStyle=orthogonalEdgeStyle;" edge="1" parent="1" source="W2tcgjGK7vni5vvteFp--8" target="W2tcgjGK7vni5vvteFp--15">
          <mxGeometry width="50" height="50" relative="1" as="geometry">
            <mxPoint x="390" y="310" as="sourcePoint" />
            <mxPoint x="440" y="260" as="targetPoint" />
            <Array as="points">
              <mxPoint x="580" y="250" />
              <mxPoint x="580" y="340" />
            </Array>
          </mxGeometry>
        </mxCell>
        <mxCell id="W2tcgjGK7vni5vvteFp--23" value="" style="rounded=1;orthogonalLoop=1;jettySize=auto;html=1;endArrow=halfCircle;endFill=0;endSize=6;strokeWidth=2;sketch=0;fillColor=#cce5ff;strokeColor=#36393d;edgeStyle=elbowEdgeStyle;elbow=vertical;exitX=0.5;exitY=0;exitDx=0;exitDy=0;" edge="1" parent="1" source="W2tcgjGK7vni5vvteFp--11">
          <mxGeometry relative="1" as="geometry">
            <mxPoint x="400" y="190" as="sourcePoint" />
            <mxPoint x="270" y="179" as="targetPoint" />
            <Array as="points">
              <mxPoint x="270" y="179" />
              <mxPoint x="350" y="179" />
            </Array>
          </mxGeometry>
        </mxCell>
        <mxCell id="W2tcgjGK7vni5vvteFp--24" value="" style="rounded=1;orthogonalLoop=1;jettySize=auto;html=1;endArrow=oval;endFill=0;sketch=0;sourcePerimeterSpacing=0;targetPerimeterSpacing=0;endSize=10;fillColor=#cce5ff;strokeColor=#36393d;strokeWidth=2;exitX=0.5;exitY=0;exitDx=0;exitDy=0;edgeStyle=orthogonalEdgeStyle;" edge="1" parent="1" source="W2tcgjGK7vni5vvteFp--9">
          <mxGeometry relative="1" as="geometry">
            <mxPoint x="160" y="304" as="sourcePoint" />
            <mxPoint x="270" y="179" as="targetPoint" />
            <Array as="points">
              <mxPoint x="150" y="179" />
            </Array>
          </mxGeometry>
        </mxCell>
        <mxCell id="W2tcgjGK7vni5vvteFp--26" value="" style="rounded=1;orthogonalLoop=1;jettySize=auto;html=1;endArrow=halfCircle;endFill=0;endSize=6;strokeWidth=2;sketch=0;fillColor=#cce5ff;strokeColor=#36393d;exitX=0.5;exitY=1;exitDx=0;exitDy=0;" edge="1" parent="1">
          <mxGeometry relative="1" as="geometry">
            <mxPoint x="151" y="390" as="sourcePoint" />
            <mxPoint x="270" y="500" as="targetPoint" />
            <Array as="points">
              <mxPoint x="151" y="500" />
            </Array>
          </mxGeometry>
        </mxCell>
        <mxCell id="W2tcgjGK7vni5vvteFp--27" value="" style="rounded=1;orthogonalLoop=1;jettySize=auto;html=1;endArrow=oval;endFill=0;sketch=0;sourcePerimeterSpacing=0;targetPerimeterSpacing=0;endSize=10;fillColor=#cce5ff;strokeColor=#36393d;strokeWidth=2;exitX=0.5;exitY=1;exitDx=0;exitDy=0;" edge="1" parent="1" source="W2tcgjGK7vni5vvteFp--13">
          <mxGeometry relative="1" as="geometry">
            <mxPoint x="460" y="500" as="sourcePoint" />
            <mxPoint x="270" y="500" as="targetPoint" />
            <Array as="points">
              <mxPoint x="410" y="500" />
            </Array>
          </mxGeometry>
        </mxCell>
      </root>
    </mxGraphModel>
  </diagram>
</mxfile>
